<svg width="194" height="131" viewBox="0 0 194 131" fill="none" xmlns="http://www.w3.org/2000/svg">
<path d="M88.619 112.768C79.6591 124.595 67.1749 130.509 51.1665 130.509C35.1582 130.509 22.6143 124.595 13.5349 112.768C4.57497 100.822 0.0950063 84.9924 0.0950063 65.2806C0.0950063 45.5687 4.57497 29.7993 13.5349 17.9722C22.6143 6.02564 35.1582 0.0523596 51.1665 0.0523596C67.1749 0.0523596 79.6591 6.02564 88.619 17.9722C97.6984 29.7993 102.238 45.5687 102.238 65.2806C102.238 84.9924 97.6984 100.822 88.619 112.768ZM28.7667 65.2806C28.7667 90.1294 36.2333 102.554 51.1665 102.554C66.0997 102.554 73.5663 90.1294 73.5663 65.2806C73.5663 40.4317 66.0997 28.0073 51.1665 28.0073C36.2333 28.0073 28.7667 40.4317 28.7667 65.2806ZM108.393 128V107.213L150.505 63.4886C158.987 54.7676 163.228 47.3607 163.228 41.268C163.228 37.3256 162.033 34.1598 159.644 31.7705C157.255 29.2617 153.969 28.0073 149.788 28.0073C141.425 28.0073 135.273 32.547 131.331 41.6264L107.139 27.4697C110.962 18.5098 116.696 11.7003 124.342 7.0411C131.988 2.38194 140.35 0.0523596 149.43 0.0523596C161.137 0.0523596 171.113 3.69606 179.356 10.9835C187.718 18.1514 191.9 27.8281 191.9 40.0136C191.9 53.2743 185.389 66.4155 172.367 79.4372L151.58 100.403H193.692V128H108.393Z" fill="white"/>
</svg>
