<svg width="12" height="12" viewBox="0 0 12 12" fill="none" xmlns="http://www.w3.org/2000/svg">
<path fill-rule="evenodd" clip-rule="evenodd" d="M0 6C0 2.68643 2.68643 0 6 0C9.31409 0 12 2.68643 12 6C12 9.31409 9.31409 12 6 12C2.68643 12 0 9.31409 0 6ZM10.9565 6C10.9565 3.26713 8.73287 1.04348 6 1.04348C3.26713 1.04348 1.04348 3.26713 1.04348 6C1.04348 8.73287 3.26713 10.9565 6 10.9565C8.73287 10.9565 10.9565 8.73287 10.9565 6Z" fill="black"/>
<path fill-rule="evenodd" clip-rule="evenodd" d="M4.00143 4.84617C4.41366 4.13217 5.17549 3.69232 5.99995 3.69232C7.27446 3.69232 8.30765 4.72551 8.30765 6.00001C8.30765 7.27452 7.27446 8.30771 5.99995 8.30771C5.17549 8.30771 4.41366 7.86786 4.00143 7.15386C3.5892 6.43986 3.5892 5.56017 4.00143 4.84617ZM7.28109 6.00001C7.27996 5.29293 6.70704 4.72001 5.99995 4.71888C5.29287 4.72001 4.71994 5.29293 4.71881 6.00001C4.71994 6.7071 5.29287 7.28002 5.99995 7.28115C6.70704 7.28002 7.27996 6.7071 7.28109 6.00001Z" fill="black"/>
</svg>
