<svg width="165" height="131" viewBox="0 0 165 131" fill="none" xmlns="http://www.w3.org/2000/svg">
<path d="M88.8938 112.768C79.9339 124.595 67.4497 130.509 51.4413 130.509C35.4329 130.509 22.889 124.595 13.8097 112.768C4.84975 100.822 0.369787 84.9924 0.369787 65.2806C0.369787 45.5687 4.84975 29.7993 13.8097 17.9722C22.889 6.02564 35.4329 0.0523596 51.4413 0.0523596C67.4497 0.0523596 79.9339 6.02564 88.8938 17.9722C97.9732 29.7993 102.513 45.5687 102.513 65.2806C102.513 84.9924 97.9732 100.822 88.8938 112.768ZM29.0415 65.2806C29.0415 90.1294 36.5081 102.554 51.4413 102.554C66.3745 102.554 73.8411 90.1294 73.8411 65.2806C73.8411 40.4317 66.3745 28.0073 51.4413 28.0073C36.5081 28.0073 29.0415 40.4317 29.0415 65.2806ZM139.311 2.56114H164.399V128H135.727V32.8457L113.506 38.9384L106.518 14.3882L139.311 2.56114Z" fill="white"/>
</svg>
