<svg width="196" height="131" viewBox="0 0 196 131" fill="none" xmlns="http://www.w3.org/2000/svg">
<path d="M88.569 112.768C79.6091 124.595 67.1249 130.509 51.1165 130.509C35.1082 130.509 22.5643 124.595 13.4849 112.768C4.52496 100.822 0.0450033 84.9924 0.0450033 65.2806C0.0450033 45.5687 4.52496 29.7993 13.4849 17.9722C22.5643 6.02564 35.1082 0.0523596 51.1165 0.0523596C67.1249 0.0523596 79.6091 6.02564 88.569 17.9722C97.6484 29.7993 102.188 45.5687 102.188 65.2806C102.188 84.9924 97.6484 100.822 88.569 112.768ZM28.7167 65.2806C28.7167 90.1294 36.1833 102.554 51.1165 102.554C66.0497 102.554 73.5163 90.1294 73.5163 65.2806C73.5163 40.4317 66.0497 28.0073 51.1165 28.0073C36.1833 28.0073 28.7167 40.4317 28.7167 65.2806ZM168.958 53.4535C176.963 56.2012 183.414 60.6811 188.312 66.8934C193.21 72.9861 195.659 80.2138 195.659 88.5764C195.659 101.718 191.239 111.992 182.398 119.398C173.558 126.805 162.746 130.509 149.963 130.509C140.048 130.509 131.148 128.239 123.263 123.699C115.498 119.16 109.763 112.469 106.06 103.629L130.789 89.2932C133.895 98.1336 140.287 102.554 149.963 102.554C155.578 102.554 159.819 101.24 162.687 98.6115C165.554 95.9832 166.987 92.6382 166.987 88.5764C166.987 84.5145 165.554 81.1695 162.687 78.5412C159.819 75.913 155.578 74.5989 149.963 74.5989H144.05L133.119 58.2918L155.877 29.4409H110.002V2.56114H190.641V25.8569L168.958 53.4535Z" fill="white"/>
</svg>
